<?xml version="1.0" encoding="UTF-8" standalone="no"?>
<svg
   xmlns:dc="http://purl.org/dc/elements/1.1/"
   xmlns:cc="http://creativecommons.org/ns#"
   xmlns:rdf="http://www.w3.org/1999/02/22-rdf-syntax-ns#"
   xmlns:svg="http://www.w3.org/2000/svg"
   xmlns="http://www.w3.org/2000/svg"
   xmlns:sodipodi="http://sodipodi.sourceforge.net/DTD/sodipodi-0.dtd"
   xmlns:inkscape="http://www.inkscape.org/namespaces/inkscape"
   font-size="10px"
   width="675.09766"
   height="219.62639"
   id="svg2"
   version="1.1"
   inkscape:version="0.48.3.1 r9886"
   sodipodi:docname="age.svg"
   style="font-size:10px;fill:none;stroke:none;font-family:sans-serif">
  <metadata
     id="metadata224">
    <rdf:RDF>
      <cc:Work
         rdf:about="">
        <dc:format>image/svg+xml</dc:format>
        <dc:type
           rdf:resource="http://purl.org/dc/dcmitype/StillImage" />
        <dc:title></dc:title>
      </cc:Work>
    </rdf:RDF>
  </metadata>
  <defs
     id="defs222" />
  <sodipodi:namedview
     pagecolor="#ffffff"
     bordercolor="#666666"
     borderopacity="1"
     objecttolerance="10"
     gridtolerance="10"
     guidetolerance="10"
     inkscape:pageopacity="0"
     inkscape:pageshadow="2"
     inkscape:window-width="1280"
     inkscape:window-height="776"
     id="namedview220"
     showgrid="false"
     inkscape:zoom="1.5446154"
     inkscape:cx="303.77606"
     inkscape:cy="68.205673"
     inkscape:window-x="0"
     inkscape:window-y="24"
     inkscape:window-maximized="1"
     inkscape:current-layer="svg2"
     fit-margin-left="10"
     fit-margin-top="10"
     fit-margin-right="10"
     fit-margin-bottom="10" />
  <g
     id="g24"
     transform="translate(14.597656,-32.792553)">
    <path
       d="M 20,184.14007 C 24.689305,174.87376 71.902359,57.838269 89,47.792553"
       id="path26"
       inkscape:connector-curvature="0"
       style="stroke:#5050b4;stroke-width:4" />
    <path
       d="m 89,47.792553 c 17.09764,-10.045716 49.7361,8.404673 69,16.888298"
       id="path28"
       inkscape:connector-curvature="0"
       style="stroke:#5050b4;stroke-width:4" />
    <path
       d="m 158,64.680851 c 19.2639,8.483625 54.94648,61.437789 69,72.650709"
       id="path30"
       inkscape:connector-curvature="0"
       style="stroke:#5050b4;stroke-width:4" />
    <path
       d="m 227,137.33156 c 14.05352,11.21292 48.41762,30.40157 69,37.45567"
       id="path32"
       inkscape:connector-curvature="0"
       style="stroke:#5050b4;stroke-width:4" />
    <path
       d="m 296,174.78723 c 20.58238,7.05411 46.24644,7.47246 69,9.84043"
       id="path34"
       inkscape:connector-curvature="0"
       style="stroke:#5050b4;stroke-width:4" />
    <path
       d="m 365,184.62766 c 22.75356,2.36797 46.05834,3.36435 69,4.52128"
       id="path36"
       inkscape:connector-curvature="0"
       style="stroke:#5050b4;stroke-width:4" />
    <path
       d="m 434,189.14894 c 22.94166,1.15692 46.0192,1.7736 69,2.43794"
       id="path38"
       inkscape:connector-curvature="0"
       style="stroke:#5050b4;stroke-width:4" />
    <path
       d="m 503,191.58688 c 22.9808,0.66434 46.00826,1.1157 69,1.55142"
       id="path40"
       inkscape:connector-curvature="0"
       style="stroke:#5050b4;stroke-width:4" />
    <path
       d="m 572,193.1383 c 22.99174,0.43572 46.00547,0.7093 69,1.06383"
       id="path42"
       inkscape:connector-curvature="0"
       style="stroke:#5050b4;stroke-width:4" />
  </g>
  <g
     id="g106"
     transform="translate(14.597656,-32.792553)">
    <a
       title="245 responses"
       id="a108">
      <circle
         cursor="crosshair"
         cx="20"
         cy="184.14008"
         r="4"
         id="circle110"
         sodipodi:cx="20"
         sodipodi:cy="184.14008"
         sodipodi:rx="4"
         sodipodi:ry="4"
         style="stroke:#5050b4;stroke-width:2"
         d="m 24,184.14008 c 0,2.20913 -1.790861,4 -4,4 -2.209139,0 -4,-1.79087 -4,-4 0,-2.20914 1.790861,-4 4,-4 2.209139,0 4,1.79086 4,4 z" />
    </a>
    <a
       title="3321 responses"
       id="a112">
      <circle
         cursor="crosshair"
         cx="89"
         cy="47.792553"
         r="4"
         id="circle114"
         sodipodi:cx="89"
         sodipodi:cy="47.792553"
         sodipodi:rx="4"
         sodipodi:ry="4"
         style="stroke:#5050b4;stroke-width:2"
         d="m 93,47.792553 c 0,2.209139 -1.790861,4 -4,4 -2.209139,0 -4,-1.790861 -4,-4 0,-2.209139 1.790861,-4 4,-4 2.209139,0 4,1.790861 4,4 z" />
    </a>
    <a
       title="2940 responses"
       id="a116">
      <circle
         cursor="crosshair"
         cx="158"
         cy="64.680855"
         r="4"
         id="circle118"
         sodipodi:cx="158"
         sodipodi:cy="64.680855"
         sodipodi:rx="4"
         sodipodi:ry="4"
         style="stroke:#5050b4;stroke-width:2"
         d="m 162,64.680855 c 0,2.209139 -1.79086,4 -4,4 -2.20914,0 -4,-1.790861 -4,-4 0,-2.209139 1.79086,-4 4,-4 2.20914,0 4,1.790861 4,4 z" />
    </a>
    <a
       title="1301 responses"
       id="a120">
      <circle
         cursor="crosshair"
         cx="227"
         cy="137.33156"
         r="4"
         id="circle122"
         sodipodi:cx="227"
         sodipodi:cy="137.33156"
         sodipodi:rx="4"
         sodipodi:ry="4"
         style="stroke:#5050b4;stroke-width:2"
         d="m 231,137.33156 c 0,2.20914 -1.79086,4 -4,4 -2.20914,0 -4,-1.79086 -4,-4 0,-2.20914 1.79086,-4 4,-4 2.20914,0 4,1.79086 4,4 z" />
    </a>
    <a
       title="456 responses"
       id="a124">
      <circle
         cursor="crosshair"
         cx="296"
         cy="174.78723"
         r="4"
         id="circle126"
         sodipodi:cx="296"
         sodipodi:cy="174.78723"
         sodipodi:rx="4"
         sodipodi:ry="4"
         style="stroke:#5050b4;stroke-width:2"
         d="m 300,174.78723 c 0,2.20914 -1.79086,4 -4,4 -2.20914,0 -4,-1.79086 -4,-4 0,-2.20914 1.79086,-4 4,-4 2.20914,0 4,1.79086 4,4 z" />
    </a>
    <a
       title="234 responses"
       id="a128">
      <circle
         cursor="crosshair"
         cx="365"
         cy="184.62766"
         r="4"
         id="circle130"
         sodipodi:cx="365"
         sodipodi:cy="184.62766"
         sodipodi:rx="4"
         sodipodi:ry="4"
         style="stroke:#5050b4;stroke-width:2"
         d="m 369,184.62766 c 0,2.20913 -1.79086,4 -4,4 -2.20914,0 -4,-1.79087 -4,-4 0,-2.20914 1.79086,-4 4,-4 2.20914,0 4,1.79086 4,4 z" />
    </a>
    <a
       title="132 responses"
       id="a132">
      <circle
         cursor="crosshair"
         cx="434"
         cy="189.14894"
         r="4"
         id="circle134"
         sodipodi:cx="434"
         sodipodi:cy="189.14894"
         sodipodi:rx="4"
         sodipodi:ry="4"
         style="stroke:#5050b4;stroke-width:2"
         d="m 438,189.14894 c 0,2.20914 -1.79086,4 -4,4 -2.20914,0 -4,-1.79086 -4,-4 0,-2.20914 1.79086,-4 4,-4 2.20914,0 4,1.79086 4,4 z" />
    </a>
    <a
       title="77 responses"
       id="a136">
      <circle
         cursor="crosshair"
         cx="503"
         cy="191.58688"
         r="4"
         id="circle138"
         sodipodi:cx="503"
         sodipodi:cy="191.58688"
         sodipodi:rx="4"
         sodipodi:ry="4"
         style="stroke:#5050b4;stroke-width:2"
         d="m 507,191.58688 c 0,2.20914 -1.79086,4 -4,4 -2.20914,0 -4,-1.79086 -4,-4 0,-2.20914 1.79086,-4 4,-4 2.20914,0 4,1.79086 4,4 z" />
    </a>
    <a
       title="42 responses"
       id="a140">
      <circle
         cursor="crosshair"
         cx="572"
         cy="193.13829"
         r="4"
         id="circle142"
         sodipodi:cx="572"
         sodipodi:cy="193.13829"
         sodipodi:rx="4"
         sodipodi:ry="4"
         style="stroke:#5050b4;stroke-width:2"
         d="m 576,193.13829 c 0,2.20914 -1.79086,4 -4,4 -2.20914,0 -4,-1.79086 -4,-4 0,-2.20914 1.79086,-4 4,-4 2.20914,0 4,1.79086 4,4 z" />
    </a>
    <a
       title="18 responses"
       id="a144">
      <circle
         cursor="crosshair"
         cx="641"
         cy="194.20213"
         r="4"
         id="circle146"
         sodipodi:cx="641"
         sodipodi:cy="194.20213"
         sodipodi:rx="4"
         sodipodi:ry="4"
         style="stroke:#5050b4;stroke-width:2"
         d="m 645,194.20213 c 0,2.20914 -1.79086,4 -4,4 -2.20914,0 -4,-1.79086 -4,-4 0,-2.20914 1.79086,-4 4,-4 2.20914,0 4,1.79086 4,4 z" />
    </a>
  </g>
  <g
     id="g190"
     transform="translate(14.597656,-32.792553)">
    <text
       pointer-events="none"
       x="-3"
       dy="9.1791865e-34"
       transform="matrix(0,-1,1,0,20,200)"
       id="text192"
       style="text-anchor:end;fill:#000000">10-14</text>
    <text
       pointer-events="none"
       x="-3"
       dy="9.1791865e-34"
       transform="matrix(0,-1,1,0,89,200)"
       id="text194"
       style="text-anchor:end;fill:#000000">15-19</text>
    <text
       pointer-events="none"
       x="-3"
       dy="9.1791865e-34"
       transform="matrix(0,-1,1,0,158,200)"
       id="text196"
       style="text-anchor:end;fill:#000000">20-24</text>
    <text
       pointer-events="none"
       x="-3"
       dy="9.1791865e-34"
       transform="matrix(0,-1,1,0,227,200)"
       id="text198"
       style="text-anchor:end;fill:#000000">25-29</text>
    <text
       pointer-events="none"
       x="-3"
       dy="9.1791865e-34"
       transform="matrix(0,-1,1,0,296,200)"
       id="text200"
       style="text-anchor:end;fill:#000000">30-34</text>
    <text
       pointer-events="none"
       x="-3"
       dy="9.1791865e-34"
       transform="matrix(0,-1,1,0,365,200)"
       id="text202"
       style="text-anchor:end;fill:#000000">35-39</text>
    <text
       pointer-events="none"
       x="-3"
       dy="9.1791865e-34"
       transform="matrix(0,-1,1,0,434,200)"
       id="text204"
       style="text-anchor:end;fill:#000000">40-44</text>
    <text
       pointer-events="none"
       x="-3"
       dy="9.1791865e-34"
       transform="matrix(0,-1,1,0,503,200)"
       id="text206"
       style="text-anchor:end;fill:#000000">45-49</text>
    <text
       pointer-events="none"
       x="-3"
       dy="9.1791865e-34"
       transform="matrix(0,-1,1,0,572,200)"
       id="text208"
       style="text-anchor:end;fill:#000000">50-54</text>
    <text
       pointer-events="none"
       x="-3"
       dy="9.1791865e-34"
       transform="matrix(0,-1,1,0,641,200)"
       id="text210"
       style="text-anchor:end;fill:#000000">Over 55</text>
  </g>
  <g
     id="g212"
     transform="translate(14.597656,-32.792553)">
    <line
       shape-rendering="crispEdges"
       x1="0"
       y1="200"
       x2="650"
       y2="200"
       id="line214"
       style="stroke:#000000;stroke-width:1" />
  </g>
  <g
     id="g216"
     transform="translate(14.597656,-32.792553)">
    <text
       pointer-events="none"
       x="3"
       y="3"
       dy="9.1791865e-34"
       transform="matrix(0,-1,1,0,0,150)"
       id="text218"
       style="fill:#000000">% of respondents</text>
  </g>
</svg>
