<?xml version="1.0" encoding="UTF-8" standalone="no"?>
<svg
   xmlns:dc="http://purl.org/dc/elements/1.1/"
   xmlns:cc="http://creativecommons.org/ns#"
   xmlns:rdf="http://www.w3.org/1999/02/22-rdf-syntax-ns#"
   xmlns:svg="http://www.w3.org/2000/svg"
   xmlns="http://www.w3.org/2000/svg"
   xmlns:sodipodi="http://sodipodi.sourceforge.net/DTD/sodipodi-0.dtd"
   xmlns:inkscape="http://www.inkscape.org/namespaces/inkscape"
   font-size="10px"
   width="669.82477"
   height="261.81451"
   id="svg3089"
   version="1.1"
   inkscape:version="0.48.3.1 r9886"
   sodipodi:docname="sex-importance.svg"
   style="font-size:10px;fill:none;stroke:none;font-family:sans-serif">
  <metadata
     id="metadata3191">
    <rdf:RDF>
      <cc:Work
         rdf:about="">
        <dc:format>image/svg+xml</dc:format>
        <dc:type
           rdf:resource="http://purl.org/dc/dcmitype/StillImage" />
        <dc:title></dc:title>
      </cc:Work>
    </rdf:RDF>
  </metadata>
  <defs
     id="defs3189" />
  <sodipodi:namedview
     pagecolor="#ffffff"
     bordercolor="#666666"
     borderopacity="1"
     objecttolerance="10"
     gridtolerance="10"
     guidetolerance="10"
     inkscape:pageopacity="0"
     inkscape:pageshadow="2"
     inkscape:window-width="1280"
     inkscape:window-height="776"
     id="namedview3187"
     showgrid="false"
     inkscape:zoom="1.1832253"
     inkscape:cx="510.91981"
     inkscape:cy="36.633825"
     inkscape:window-x="0"
     inkscape:window-y="24"
     inkscape:window-maximized="1"
     inkscape:current-layer="svg3089"
     fit-margin-top="10"
     fit-margin-left="10"
     fit-margin-right="10"
     fit-margin-bottom="10" />
  <g
     id="g3029"
     transform="matrix(1.4571083,0,0,1.4571083,10,10)">
    <g
       transform="translate(0,-9.125)"
       id="g3091">
      <path
         style="stroke:#6464c8;stroke-width:3;stroke-opacity:0.6"
         inkscape:connector-curvature="0"
         id="path3093"
         d="m 1,65.873016 c 9.344714,3.93296 22.212321,12.375466 33,13.888889 10.787679,1.513423 22.001419,-4.75454 33,-4.62963 10.998581,0.124911 22.03875,6.030912 33,5.379189 10.96125,-0.651723 22.00126,-9.185787 33,-9.303351 10.99874,-0.117565 22.00238,8.436164 33,8.597883 10.99762,0.16172 22.00045,-0.246655 33,-0.176366 10.99955,0.07029 22.37703,1.834697 33,3.835978 10.62297,2.001282 22.0211,8.116543 33,8.597884 10.9789,0.481341 22.00024,0.433506 33,0.485009" />
    </g>
    <g
       transform="translate(0,-9.125)"
       id="g3095">
      <path
         style="stroke:#64c864;stroke-width:3;stroke-opacity:0.6"
         inkscape:connector-curvature="0"
         id="path3097"
         d="m 1,97.299092 c 10.979953,-0.469169 22.160055,-0.09968 33,-1.416869 10.839945,-1.317187 22.176491,-5.259459 33,-6.641577 10.823509,-1.382117 22.765835,-0.521201 33,-3.320788 10.23416,-2.799586 22.18537,-16.604936 33,-18.02081 10.81463,-1.415874 22.04227,2.274548 33,1.593978 10.95773,-0.680569 22.068,-8.524581 33,-9.386761 10.932,-0.862179 23.19711,0.515014 33,3.940669 9.80289,3.425654 22.23355,18.604683 33,20.190392 10.76645,1.585709 22.00537,1.395194 33,1.638255" />
    </g>
    <g
       transform="translate(0,-9.125)"
       id="g3099">
      <path
         style="stroke:#c86464;stroke-width:3;stroke-opacity:0.6"
         inkscape:connector-curvature="0"
         id="path3101"
         d="m 1,97.650188 c 10.999027,0.103442 22.00002,0.295574 33,0.310353 10.99998,0.01478 22.000066,-0.194795 33,-0.22168 10.999934,-0.02689 22.008684,-0.0014 33,-0.310353 10.99132,-0.308942 22.00222,-5.651667 33,-5.808025 10.99778,-0.156357 22.00421,0.481125 33,0.266017 10.99579,-0.215109 23.47151,-4.147325 33,-7.89182 9.52849,-3.744496 23.35133,-14.43389 33,-18.04478 9.64867,-3.610889 25.42734,-3.373676 33,-8.468189 7.57266,-5.094513 28.43674,-33.773442 33,-39.193083" />
    </g>
    <g
       transform="translate(0,-9.125)"
       id="g3103">
      <path
         style="stroke:#6464c8;stroke-width:3;stroke-opacity:0.6"
         inkscape:connector-curvature="0"
         id="path3105"
         d="m 320,60.231449 60,-4.913277 60,-0.972934" />
    </g>
    <g
       transform="translate(0,-9.125)"
       id="g3107">
      <circle
         d="m 324.47214,60.231449 c 0,2.469893 -2.00225,4.472136 -4.47214,4.472136 -2.46989,0 -4.47214,-2.002243 -4.47214,-4.472136 0,-2.469892 2.00225,-4.472136 4.47214,-4.472136 2.46989,0 4.47214,2.002244 4.47214,4.472136 z"
         style="stroke:#6464c8;stroke-width:3;stroke-opacity:0.6"
         sodipodi:ry="4.472136"
         sodipodi:rx="4.472136"
         sodipodi:cy="60.231449"
         sodipodi:cx="320"
         id="circle3109"
         r="4.472136"
         cy="60.231449"
         cx="320" />
      <circle
         d="m 384.47214,55.318172 c 0,2.469893 -2.00225,4.472136 -4.47214,4.472136 -2.46989,0 -4.47214,-2.002243 -4.47214,-4.472136 0,-2.469892 2.00225,-4.472136 4.47214,-4.472136 2.46989,0 4.47214,2.002244 4.47214,4.472136 z"
         style="stroke:#6464c8;stroke-width:3;stroke-opacity:0.6"
         sodipodi:ry="4.472136"
         sodipodi:rx="4.472136"
         sodipodi:cy="55.318172"
         sodipodi:cx="380"
         id="circle3111"
         r="4.472136"
         cy="55.318172"
         cx="380" />
      <circle
         d="m 444.47214,54.345238 c 0,2.469892 -2.00225,4.472136 -4.47214,4.472136 -2.46989,0 -4.47214,-2.002244 -4.47214,-4.472136 0,-2.469893 2.00225,-4.472136 4.47214,-4.472136 2.46989,0 4.47214,2.002243 4.47214,4.472136 z"
         style="stroke:#6464c8;stroke-width:3;stroke-opacity:0.6"
         sodipodi:ry="4.472136"
         sodipodi:rx="4.472136"
         sodipodi:cy="54.345238"
         sodipodi:cx="440"
         id="circle3113"
         r="4.472136"
         cy="54.345238"
         cx="440" />
    </g>
    <g
       transform="translate(0,-9.125)"
       id="g3115">
      <text
         style="text-anchor:end;fill:#000000"
         id="text3117"
         transform="matrix(0,-1,1,0,320,64.703585)"
         dy="-3"
         x="-3"
         pointer-events="none">2008</text>
      <text
         style="text-anchor:end;fill:#000000"
         id="text3119"
         transform="matrix(0,-1,1,0,380,59.790308)"
         dy="-3"
         x="-3"
         pointer-events="none">2009</text>
      <text
         style="text-anchor:end;fill:#000000"
         id="text3121"
         transform="matrix(0,-1,1,0,440,58.817374)"
         dy="-3"
         x="-3"
         pointer-events="none">2010</text>
    </g>
    <g
       transform="translate(0,-9.125)"
       id="g3123">
      <path
         style="stroke:#64c864;stroke-width:3;stroke-opacity:0.6"
         inkscape:connector-curvature="0"
         id="path3125"
         d="m 320,44.523885 60,-9.920443 60,0.743027" />
    </g>
    <g
       transform="translate(0,-9.125)"
       id="g3127">
      <circle
         d="m 324.47214,44.523884 c 0,2.469892 -2.00225,4.472136 -4.47214,4.472136 -2.46989,0 -4.47214,-2.002244 -4.47214,-4.472136 0,-2.469893 2.00225,-4.472136 4.47214,-4.472136 2.46989,0 4.47214,2.002243 4.47214,4.472136 z"
         style="stroke:#64c864;stroke-width:3;stroke-opacity:0.6"
         sodipodi:ry="4.472136"
         sodipodi:rx="4.472136"
         sodipodi:cy="44.523884"
         sodipodi:cx="320"
         id="circle3129"
         r="4.472136"
         cy="44.523884"
         cx="320" />
      <circle
         d="m 384.47214,34.603443 c 0,2.469893 -2.00225,4.472136 -4.47214,4.472136 -2.46989,0 -4.47214,-2.002243 -4.47214,-4.472136 0,-2.469892 2.00225,-4.472136 4.47214,-4.472136 2.46989,0 4.47214,2.002244 4.47214,4.472136 z"
         style="stroke:#64c864;stroke-width:3;stroke-opacity:0.6"
         sodipodi:ry="4.472136"
         sodipodi:rx="4.472136"
         sodipodi:cy="34.603443"
         sodipodi:cx="380"
         id="circle3131"
         r="4.472136"
         cy="34.603443"
         cx="380" />
      <circle
         d="m 444.47214,35.34647 c 0,2.469892 -2.00225,4.472136 -4.47214,4.472136 -2.46989,0 -4.47214,-2.002244 -4.47214,-4.472136 0,-2.469893 2.00225,-4.472136 4.47214,-4.472136 2.46989,0 4.47214,2.002243 4.47214,4.472136 z"
         style="stroke:#64c864;stroke-width:3;stroke-opacity:0.6"
         sodipodi:ry="4.472136"
         sodipodi:rx="4.472136"
         sodipodi:cy="35.34647"
         sodipodi:cx="440"
         id="circle3133"
         r="4.472136"
         cy="35.34647"
         cx="440" />
    </g>
    <g
       transform="translate(0,-9.125)"
       id="g3135">
      <path
         style="stroke:#c86464;stroke-width:3;stroke-opacity:0.6"
         inkscape:connector-curvature="0"
         id="path3137"
         d="m 320,17.555279 60,-1.790427 60,-0.679505" />
    </g>
    <g
       transform="translate(0,-9.125)"
       id="g3139">
      <circle
         d="m 324.47214,17.555279 c 0,2.469892 -2.00225,4.472136 -4.47214,4.472136 -2.46989,0 -4.47214,-2.002244 -4.47214,-4.472136 0,-2.469893 2.00225,-4.472136 4.47214,-4.472136 2.46989,0 4.47214,2.002243 4.47214,4.472136 z"
         style="stroke:#c86464;stroke-width:3;stroke-opacity:0.6"
         sodipodi:ry="4.472136"
         sodipodi:rx="4.472136"
         sodipodi:cy="17.555279"
         sodipodi:cx="320"
         id="circle3141"
         r="4.472136"
         cy="17.555279"
         cx="320" />
      <circle
         d="m 384.47214,15.764852 c 0,2.469892 -2.00225,4.472136 -4.47214,4.472136 -2.46989,0 -4.47214,-2.002244 -4.47214,-4.472136 0,-2.469893 2.00225,-4.472136 4.47214,-4.472136 2.46989,0 4.47214,2.002243 4.47214,4.472136 z"
         style="stroke:#c86464;stroke-width:3;stroke-opacity:0.6"
         sodipodi:ry="4.472136"
         sodipodi:rx="4.472136"
         sodipodi:cy="15.764852"
         sodipodi:cx="380"
         id="circle3143"
         r="4.472136"
         cy="15.764852"
         cx="380" />
      <circle
         d="m 444.47214,15.085347 c 0,2.469893 -2.00225,4.472136 -4.47214,4.472136 -2.46989,0 -4.47214,-2.002243 -4.47214,-4.472136 0,-2.469892 2.00225,-4.472136 4.47214,-4.472136 2.46989,0 4.47214,2.002244 4.47214,4.472136 z"
         style="stroke:#c86464;stroke-width:3;stroke-opacity:0.6"
         sodipodi:ry="4.472136"
         sodipodi:rx="4.472136"
         sodipodi:cy="15.085347"
         sodipodi:cx="440"
         id="circle3145"
         r="4.472136"
         cy="15.085347"
         cx="440" />
    </g>
    <g
       transform="translate(0,-9.125)"
       id="g3147">
      <line
         style="stroke:#888888;stroke-width:1"
         id="line3149"
         y2="100"
         x2="300"
         y1="100"
         x1="0"
         shape-rendering="crispEdges" />
    </g>
    <g
       transform="translate(0,-5.125)"
       id="g3151">
      <text
         style="fill:#000000"
         id="text3153"
         transform="translate(0,100)"
         dy="3"
         y="3"
         x="3"
         pointer-events="none">Not important</text>
    </g>
    <g
       transform="translate(0,-5.125)"
       id="g3155">
      <text
         style="text-anchor:end;fill:#000000"
         id="text3157"
         transform="translate(300,100)"
         dy="3"
         y="3"
         x="-3"
         pointer-events="none">Very important</text>
    </g>
    <g
       transform="translate(0,-9.125)"
       id="g3159">
      <text
         style="text-anchor:middle;fill:#000000"
         id="text3161"
         transform="translate(380,100)"
         dy="3"
         y="3"
         pointer-events="none">Mean importance</text>
    </g>
    <g
       transform="translate(0,-9.125)"
       id="g3163">
      <line
         style="stroke:#6464c8;stroke-width:3;stroke-opacity:0.6"
         id="line3165"
         y2="130"
         x2="120"
         y1="130"
         x1="100"
         shape-rendering="crispEdges" />
    </g>
    <g
       transform="translate(0,-9.125)"
       id="g3167">
      <text
         style="fill:#000000"
         id="text3169"
         transform="translate(120,130)"
         dy="3"
         x="3"
         pointer-events="none">Importance of sex to the respondent</text>
    </g>
    <g
       transform="translate(0,-9.125)"
       id="g3171">
      <line
         style="stroke:#64c864;stroke-width:3;stroke-opacity:0.6"
         id="line3173"
         y2="150"
         x2="120"
         y1="150"
         x1="100"
         shape-rendering="crispEdges" />
    </g>
    <g
       transform="translate(0,-9.125)"
       id="g3175">
      <text
         style="fill:#000000"
         id="text3177"
         transform="translate(120,150)"
         dy="3"
         x="3"
         pointer-events="none">Importance of sex to others in the fandom</text>
    </g>
    <g
       transform="translate(0,-9.125)"
       id="g3179">
      <line
         style="stroke:#c86464;stroke-width:3;stroke-opacity:0.6"
         id="line3181"
         y2="170"
         x2="120"
         y1="170"
         x1="100"
         shape-rendering="crispEdges" />
    </g>
    <g
       transform="translate(0,-9.125)"
       id="g3183">
      <text
         style="fill:#000000"
         id="text3185"
         transform="translate(120,170)"
         dy="3"
         x="3"
         pointer-events="none">Importance of sex as perceived by public</text>
    </g>
  </g>
</svg>
