<?xml version="1.0" encoding="UTF-8" standalone="no"?>
<svg
   xmlns:dc="http://purl.org/dc/elements/1.1/"
   xmlns:cc="http://creativecommons.org/ns#"
   xmlns:rdf="http://www.w3.org/1999/02/22-rdf-syntax-ns#"
   xmlns:svg="http://www.w3.org/2000/svg"
   xmlns="http://www.w3.org/2000/svg"
   xmlns:xlink="http://www.w3.org/1999/xlink"
   xmlns:sodipodi="http://sodipodi.sourceforge.net/DTD/sodipodi-0.dtd"
   xmlns:inkscape="http://www.inkscape.org/namespaces/inkscape"
   font-size="10px"
   width="1116.1287"
   height="484.4093"
   id="svg2"
   version="1.1"
   inkscape:version="0.48.3.1 r9886"
   sodipodi:docname="years-orientation.svg"
   style="font-size:10px;fill:none;stroke:none;font-family:sans-serif">
  <metadata
     id="metadata194">
    <rdf:RDF>
      <cc:Work
         rdf:about="">
        <dc:format>image/svg+xml</dc:format>
        <dc:type
           rdf:resource="http://purl.org/dc/dcmitype/StillImage" />
        <dc:title />
      </cc:Work>
    </rdf:RDF>
  </metadata>
  <defs
     id="defs192" />
  <sodipodi:namedview
     pagecolor="#ffffff"
     bordercolor="#666666"
     borderopacity="1"
     objecttolerance="10"
     gridtolerance="10"
     guidetolerance="10"
     inkscape:pageopacity="0"
     inkscape:pageshadow="2"
     inkscape:window-width="1920"
     inkscape:window-height="1056"
     id="namedview190"
     showgrid="false"
     fit-margin-top="0"
     fit-margin-left="0"
     fit-margin-right="0"
     fit-margin-bottom="0"
     inkscape:zoom="0.5309091"
     inkscape:cx="1118.6381"
     inkscape:cy="395.7561"
     inkscape:window-x="0"
     inkscape:window-y="24"
     inkscape:window-maximized="1"
     inkscape:current-layer="g4" />
  <g
     transform="translate(308.26611,5.398349)"
     id="g4">
    <g
       id="g8"
       transform="matrix(2.1288978,0,0,2.1288978,-298.47817,6.0941853)">
      <g
         id="g10">
        <a
           id="a12"
           xlink:title="Straight">
          <path
             style="fill:#ccccff;stroke:#ffffff;stroke-width:1"
             inkscape:connector-curvature="0"
             id="path14"
             d="m 60,83.636364 30,21.789996 30,14.85094 30,10.462 30,2.24771 30,4.00721 30,2.39972 30,-3.63636 30,15.59377 30,-18.99841 30,2.26244 30,-10.80586 30,18.35915 30,4.2599 30,6.2987 30,-9.99599 0,57.26872 -30,0 -30,0 -30,0 -30,0 -30,0 -30,0 -30,0 -30,0 -30,0 -30,0 -30,0 -30,0 -30,0 -30,0 -30,0 z"
             cursor="crosshair" />
        </a>
      </g>
      <g
         id="g16">
        <text
           style="text-anchor:end;fill:#000000"
           id="text18"
           transform="translate(57,160.13865)"
           y="-3"
           x="-3"
           pointer-events="none">Straight</text>
      </g>
      <g
         id="g20">
        <text
           style="text-anchor:middle;fill:#000000"
           id="text22"
           transform="translate(60,200)"
           dy="0"
           y="3"
           pointer-events="none">&lt;1</text>
        <text
           style="text-anchor:middle;fill:#000000"
           id="text24"
           transform="translate(90,200)"
           dy="0"
           y="3"
           pointer-events="none">1</text>
        <text
           style="text-anchor:middle;fill:#000000"
           id="text26"
           transform="translate(120,200)"
           dy="0"
           y="3"
           pointer-events="none">2</text>
        <text
           style="text-anchor:middle;fill:#000000"
           id="text28"
           transform="translate(150,200)"
           dy="0"
           y="3"
           pointer-events="none">3</text>
        <text
           style="text-anchor:middle;fill:#000000"
           id="text30"
           transform="translate(180,200)"
           dy="0"
           y="3"
           pointer-events="none">4</text>
        <text
           style="text-anchor:middle;fill:#000000"
           id="text32"
           transform="translate(210,200)"
           dy="0"
           y="3"
           pointer-events="none">5</text>
        <text
           style="text-anchor:middle;fill:#000000"
           id="text34"
           transform="translate(240,200)"
           dy="0"
           y="3"
           pointer-events="none">6</text>
        <text
           style="text-anchor:middle;fill:#000000"
           id="text36"
           transform="translate(270,200)"
           dy="0"
           y="3"
           pointer-events="none">7</text>
        <text
           style="text-anchor:middle;fill:#000000"
           id="text38"
           transform="translate(300,200)"
           dy="0"
           y="3"
           pointer-events="none">8</text>
        <text
           style="text-anchor:middle;fill:#000000"
           id="text40"
           transform="translate(330,200)"
           dy="0"
           y="3"
           pointer-events="none">9</text>
        <text
           style="text-anchor:middle;fill:#000000"
           id="text42"
           transform="translate(360,200)"
           dy="0"
           y="3"
           pointer-events="none">10</text>
        <text
           style="text-anchor:middle;fill:#000000"
           id="text44"
           transform="translate(390,200)"
           dy="0"
           y="3"
           pointer-events="none">11</text>
        <text
           style="text-anchor:middle;fill:#000000"
           id="text46"
           transform="translate(420,200)"
           dy="0"
           y="3"
           pointer-events="none">12</text>
        <text
           style="text-anchor:middle;fill:#000000"
           id="text48"
           transform="translate(450,200)"
           dy="0"
           y="3"
           pointer-events="none">13</text>
        <text
           style="text-anchor:middle;fill:#000000"
           id="text50"
           transform="translate(480,200)"
           dy="0"
           y="3"
           pointer-events="none">14</text>
        <text
           style="text-anchor:middle;fill:#000000"
           id="text52"
           transform="translate(510,200)"
           dy="0"
           y="3"
           pointer-events="none">&gt;15</text>
      </g>
      <g
         id="g54">
        <a
           id="a56"
           xlink:title="Bi">
          <path
             style="fill:#eeccff;stroke:#ffffff;stroke-width:1"
             inkscape:connector-curvature="0"
             id="path58"
             d="m 60,39.090909 30,12.33028 30,7.850908 30,9.988603 30,1.908131 30,9.756024 30,-9.929184 30,-0.692641 30,20.237511 30,-8.1876 30,-11.84012 30,-7.020758 30,23.254925 L 450,100 l 30,-5.454545 30,-10.845014 0,59.030839 -30,9.99599 -30,-6.2987 -30,-4.2599 -30,-18.35915 -30,10.80586 -30,-2.26244 -30,18.99841 -30,-15.59377 -30,3.63636 -30,-2.39972 -30,-4.00721 -30,-2.24771 -30,-10.462 L 90,105.42636 60,83.636364 z"
             cursor="crosshair" />
        </a>
      </g>
      <g
         id="g60">
        <text
           style="text-anchor:end;fill:#000000"
           id="text62"
           transform="translate(57,89.774697)"
           y="-3"
           x="-3"
           pointer-events="none">Bi</text>
      </g>
      <g
         id="g64" />
      <g
         id="g66">
        <a
           id="a68"
           xlink:title="Gay">
          <path
             style="fill:#ffbbcc;stroke:#ffffff;stroke-width:1"
             inkscape:connector-curvature="0"
             id="path70"
             d="m 60,12.727273 30,7.427766 30,4.108393 30,0.639292 30,-0.48714 30,6.220254 30,-5.527613 30,-5.714286 30,19.79525 30,-15.659777 30,2.111614 30,-6.593407 30,14.687321 30,12.693631 30,-24.610389 30,5.494593 0,56.387666 L 480,94.545455 450,100 420,86.746988 390,63.492063 l -30,7.020758 -30,11.84012 -30,8.1876 L 270,70.30303 240,70.995671 210,80.924855 180,71.168831 150,69.2607 120,59.272097 90,51.421189 60,39.090909 z"
             cursor="crosshair" />
        </a>
      </g>
      <g
         id="g72">
        <text
           style="text-anchor:end;fill:#000000"
           id="text74"
           transform="translate(57,41.767764)"
           y="-3"
           x="-3"
           pointer-events="none">Gay</text>
      </g>
      <g
         id="g76" />
      <g
         id="g78">
        <a
           id="a80"
           xlink:title="Pansexual">
          <path
             style="fill:#ccffcc;stroke:#ffffff;stroke-width:1"
             inkscape:connector-curvature="0"
             id="path82"
             d="m 60,9.5454545 30,-1.2767206 30,2.1298801 30,-1.4491977 30,1.9596747 30,1.807672 30,-4.0587543 30,3.4632033 30,-2.6617525 30,-6.518283 30,4.7511312 30,-4.5177045 30,4.0543125 30,7.0567983 30,-10.6493504 30,6.0552664 0,17.621145 -30,-5.494593 -30,24.610389 -30,-12.693631 -30,-14.687321 -30,6.593407 -30,-2.111614 -30,15.659777 -30,-19.79525 -30,5.714286 -30,5.527613 -30,-6.220254 -30,0.48714 -30,-0.639292 -30,-4.108393 -30,-7.427766 z"
             cursor="crosshair" />
        </a>
      </g>
      <g
         id="g84">
        <text
           style="text-anchor:end;fill:#000000"
           id="text86"
           transform="translate(57,17.331023)"
           y="-3"
           x="-3"
           pointer-events="none">Pansexual</text>
      </g>
      <g
         id="g88" />
      <g
         id="g90">
        <a
           id="a92"
           xlink:title="Asexual">
          <path
             style="fill:#cccccc;stroke:#ffffff;stroke-width:1"
             inkscape:connector-curvature="0"
             id="path94"
             d="m 60,0 30,0 30,0 30,0 30,0 30,0 30,0 30,0 30,0 30,0 30,0 30,0 30,0 30,0 30,0 30,0 0,9.69163 L 480,3.6363636 450,14.285714 420,7.2289157 390,3.1746032 360,7.6923077 330,2.9411765 300,9.4594595 270,12.121212 240,8.6580087 210,12.716763 180,10.909091 150,8.9494163 120,10.398614 90,8.2687339 60,9.5454545 z"
             cursor="crosshair" />
        </a>
      </g>
      <g
         id="g96">
        <text
           style="text-anchor:end;fill:#000000"
           id="text98"
           transform="translate(57,5.1993068)"
           y="-3"
           x="-3"
           pointer-events="none">Asexual</text>
      </g>
      <g
         id="g100" />
    </g>
  </g>
  <g
     transform="matrix(2.1288978,0,0,2.1288978,9.7879403,11.492534)"
     id="g102">
    <text
       pointer-events="none"
       y="-3"
       transform="translate(275,225)"
       id="text104"
       style="text-anchor:middle;fill:#000000">Years in fandom</text>
  </g>
  <g
     transform="matrix(2.1288978,0,0,2.1288978,9.7879403,11.492534)"
     id="g106">
    <text
       pointer-events="none"
       x="3"
       y="3"
       dy="0"
       transform="matrix(0,-1,1,0,0,100)"
       id="text108"
       style="fill:#000000">Sexuality</text>
  </g>
</svg>
